<svg id="Layer_1" data-name="Layer 1" xmlns="http://www.w3.org/2000/svg" width="914.96" height="392.05" viewBox="0 0 914.96 392.05"><defs><style>.cls-1{fill:#fff;}</style></defs><title>lining</title><path class="cls-1" d="M0,363.62s7.75-79,24.84-108.7c38.1-66.16,119.48-42.85,249.2-115.33C346.15,99.29,455-16.75,494.78,2,531.46,19.36,594,70.29,679.2,62.23,802.42,50.58,828.5,5.42,862.07,12.3c15.74,3.23,36.6,38.16,49.31,137,8.8,68.4-1.43,178.82-1.43,178.82s-51.47,21-104.89,29c-64.24,9.67-144.86,1.6-144.86,1.6l-27.42-30s3-1.3-57.06,9.67c-81.33,14.86-186.34,43.74-261,49.3C175.45,398.17,35.41,389.4,0,363.62"/><path d="M484.86,0C439.09,0,340.81,102.27,274,139.59c-129.72,72.48-211.1,49.17-249.2,115.33C7.75,284.6,0,363.62,0,363.62,25.66,382.3,106.28,392,201.73,392c36.24,0,74.64-1.4,112.95-4.26,74.7-5.56,179.71-34.44,261-49.31,48.53-8.86,55.88-9.71,56.92-9.71.25,0,.14.05.14.05l27.42,30s31.48,3.15,70.79,3.15c23.59,0,50-1.13,74.08-4.77,53.42-8,104.89-29,104.89-29s10.23-110.43,1.43-178.82c-12.71-98.88-33.57-133.83-49.31-137a34.5,34.5,0,0,0-7-.71c-30.71,0-61.32,39.8-175.89,50.63-6.18.58-12.23.86-18.16.86-76,0-132.23-45-166.25-61a23,23,0,0,0-9.92-2m0,9.34a13.57,13.57,0,0,1,5.93,1.15c7.2,3.4,15.57,8.22,25.24,13.8,35.19,20.31,83.39,48.13,145,48.13,6.32,0,12.72-.31,19-.91,74.23-7,114.5-26.17,141.15-38.85,14.34-6.81,24.7-11.74,33.85-11.74a25.31,25.31,0,0,1,5.11.52c9,1.84,29.34,31.19,41.92,129.09,7.44,57.78.94,147.6-1,171-14.3,5.41-55.51,20.06-97.48,26.38-20.52,3.08-45,4.66-72.69,4.66-30.87,0-57.13-2-66.34-2.78l-23.29-25.45-1.14-4.93h-7.57c-1.38,0-4.59,0-58.6,9.87-28.29,5.16-58.73,11.87-91,19-59.44,13.09-120.89,26.62-169.1,30.2-37.72,2.81-75.48,4.23-112.25,4.23-92.84,0-165-9.08-191.84-23.87,2.83-25,10.88-78.14,23-99.25C52,226.48,83.21,218,130.48,205.09c39.58-10.8,88.85-24.23,148.12-57.34,27.21-15.21,59.4-40.84,90.54-65.62C412,48,460.54,9.34,484.86,9.34"/><path class="cls-1" d="M81.82,257.17c25.47-24.39,118.28-39.43,207.52-83C350,144.52,445.33,49.83,476.1,39.28c9.06-3.12,107.29,72.82,181,67.63,106.57-7.5,157.28-53.39,186.32-49C857,60,862.17,98.5,867,155.48c4.9,58.11,7.34,122.44-7,134.9-21.08,18.34-113.67,25.6-184.28,17.34-17.65-2.07-35.29-28.26-52.28-27.72-57.43,1.8-100.88,23.81-226.19,49.79-86.76,18-298.83,26.69-333.81,5.9-18.72-11.12-15.16-46.39,18.39-78.52"/><path d="M476.75,39.18a2,2,0,0,0-.66.1C445.32,49.84,350,144.52,289.33,174.17c-89.24,43.57-182,58.61-207.52,83-33.53,32.12-37.11,67.4-18.39,78.52,14.35,8.53,58.5,12.09,111.58,12.09,76.3,0,171.06-7.37,222.23-18,125.31-26,168.76-48,226.19-49.79h.51c16.83,0,34.3,25.69,51.78,27.73a541.5,541.5,0,0,0,61.75,3.38c54.66,0,107.29-7.47,122.53-20.73,14.31-12.44,11.88-76.77,7-134.88C862.17,98.49,857,60,843.4,58a28.06,28.06,0,0,0-4.13-.3c-29.67,0-80.52,42.11-182.18,49.26q-3.67.26-7.39.26c-71.2,0-161-68-172.95-68M477.9,80.9c2.68,1.51,5.5,3.13,8.09,4.61,38.62,22.07,103.28,59,163.71,59q5,0,10-.33c69.94-4.93,118.42-25.15,150.5-38.53,4.17-1.74,8.71-3.65,13-5.35,2.19,13,4.37,32.49,6.55,58.32,5.66,67.09,3.6,122.35,1.79,132.78-12.79,4.27-44.68,10.34-94.08,10.34a508.63,508.63,0,0,1-55-2.86c-2.33-1.4-6.41-4.56-9.24-6.74-11.76-9.08-27.87-21.51-49.31-21.51h-1.66c-37.08,1.17-68,9.51-110.87,21-30.71,8.28-68.93,18.57-121.74,29.52C342.34,331,250.07,338.43,175,338.43a773,773,0,0,1-83.35-4.88s-2.7-34.61,16-49.39c7.9-6.25,41.36-17.88,68.63-26.77,37.29-12.18,83.7-27.31,129.46-49.67,36.57-17.86,80.88-54,120-85.85,16.95-13.82,38.61-31.47,52.22-41"/><path d="M459.16,263.64"/><polyline points="516.3 205.92 467.8 157.42 501.6 123.61 501.32 123.33 426.88 140.13 410.08 214.56 410.37 214.85 444.19 181.04 492.68 229.53"/></svg>