<?xml version="1.0" encoding="utf-8"?>
<!-- Generator: Adobe Illustrator 22.1.0, SVG Export Plug-In . SVG Version: 6.00 Build 0)  -->
<svg version="1.1" id="Layer_1" xmlns="http://www.w3.org/2000/svg" xmlns:xlink="http://www.w3.org/1999/xlink" x="0px" y="0px"
	 width="53.2px" height="31.1px" viewBox="0 0 53.2 31.1" style="enable-background:new 0 0 53.2 31.1;" xml:space="preserve">
<g transform="translate(0)">
	<path d="M46.8,16.6c-1.2,0.1-2.3,0.2-3.5,0.2c-0.7,0-1.5,0-2.2-0.1l-1.4-1.2l-0.2-0.2h-0.6c-1.8,0-3.6,0.2-5.4,0.5
		c-1.6,0.2-3.4,0.6-5.3,0.9c-3.2,0.7-6.5,1.1-9.8,1.4c-2.2,0.1-4.4,0.2-6.5,0.2c-5.9,0-9.3-0.5-10.7-1c0.1-0.6,0.2-1.3,0.4-1.9l0,0
		c0.2-0.7,0.4-1.5,0.8-2.1c1-1.4,2.8-1.8,5.4-2.4c3-0.6,5.9-1.5,8.7-2.7c2.6-1.3,5-2.9,7.3-4.6c1.3-1,2.6-1.8,4-2.6l0,0
		C28,1,28.1,1.1,28.3,1.1c0.4,0.2,0.9,0.5,1.4,0.7C30.1,2,30.5,2.2,31,2.5c2.2,1.3,4.8,2.1,7.4,2.1c0.4,0,0.8,0,1.2,0
		c3.1-0.2,6.1-1.1,8.8-2.6c0.6-0.4,1.2-0.6,1.9-0.8l0,0c0.3,0.4,0.9,2.1,1.1,6.6c0.1,1.7,0.4,6,0.6,7.7C50.2,16,48.5,16.4,46.8,16.6
		 M52.9,16.2L52.9,16.2c0,0-0.5-6.4-0.6-8.4c-0.2-4.2-0.8-7.3-1.7-7.5c-0.1,0-0.2,0-0.3,0c-1.9,0-3.9,2.8-10.7,3.3
		c-0.4,0-0.8,0-1.1,0c-4.2,0-6.5-1.9-8.5-2.7C28.7,0.5,28.3,0,27.8,0c-0.1,0-0.2,0-0.3,0.1C25.5,0.8,20.2,5.4,16,7.3
		C8.5,10.7,3.8,9.6,1.6,12.7c-0.7,1.3-1.1,2.6-1.3,4.1c-0.1,0.7-0.2,1.4-0.3,1.8c-0.3,1.3,0.4,2.6,1.7,3c3.7,1,7.6,1.5,11.4,1.4
		c5.3-0.1,10.5-0.5,15.7-1.2c1.8-0.3,3.6-0.6,5.2-0.9s3-0.4,3.8-0.4l0.6,0.6c0.5,0.4,1,0.7,1.6,0.8c2.4,0.3,4.8,0.3,7.1-0.1
		c3.4-0.4,5.9-0.3,5.9-2.7C53.2,19.2,53,17.5,52.9,16.2"/>
	<path d="M39.2,29.7l-4.5-4.5l2-2l0,0l-4.3,1l-1,4.3l0,0l2-2l4.5,4.5L39.2,29.7z"/>
</g>
</svg>
