<?xml version="1.0" encoding="utf-8"?>
<!-- Generator: Adobe Illustrator 22.1.0, SVG Export Plug-In . SVG Version: 6.00 Build 0)  -->
<svg version="1.1" id="Layer_1" xmlns="http://www.w3.org/2000/svg" xmlns:xlink="http://www.w3.org/1999/xlink" x="0px" y="0px"
	 width="55.7px" height="24.7px" viewBox="0 0 55.7 24.7" style="enable-background:new 0 0 55.7 24.7;" xml:space="preserve">
<g transform="translate(0)">
	<path d="M17.4,2.7l-2.1,2.1L10.6,0L9.2,1.4l4.7,4.7l-2.1,2.1l0,0l4.5-1L17.4,2.7L17.4,2.7z"/>
	<path d="M47.4,22.2c-1.1,0.1-2.3,0.2-3.5,0.2c-0.7,0-1.5,0-2.2-0.1l0,0l-1.4-1.2l-0.2-0.2h-0.6c-1.8,0-3.6,0.2-5.3,0.5
		c-1.6,0.2-3.4,0.6-5.2,0.9c-3.2,0.6-6.4,1.1-9.7,1.4c-2.2,0.1-4.3,0.2-6.4,0.2c-5.4,0-8.8-0.4-10.3-0.9l-0.3-0.1
		c0.2-1.4,0.6-2.8,1.2-4c1-1.4,2.7-1.8,5.4-2.4c2.9-0.6,5.8-1.5,8.5-2.7c2.6-1.3,5-2.8,7.3-4.5c1.3-1,2.6-1.8,4-2.6
		c0.1,0.1,0.3,0.1,0.4,0.2c0.4,0.2,0.9,0.5,1.3,0.7c0.4,0.2,0.9,0.4,1.4,0.7c2.2,1.3,4.7,2,7.3,2.1c0.4,0,0.8,0,1.2,0
		c3.1-0.2,6-1.1,8.7-2.6c0.6-0.4,1.2-0.6,1.9-0.8l0,0c0.3,0.4,0.9,2.1,1.1,6.5c0.1,1.4,0.3,4.9,0.5,6.9l0,0l0.1,0.8
		C50.8,21.6,49.1,21.9,47.4,22.2 M55.7,19.7c-0.1-1.6-0.5-5.7-0.5-7.2c-0.3-5.7-1-9.3-4.1-9.8c-0.2,0-0.5-0.1-0.8-0.1
		c-1.3,0.1-2.5,0.5-3.6,1.2c-2.1,1.2-4.4,1.9-6.8,2H39c-1.8,0-3.6-0.6-5.2-1.5c-0.5-0.3-1.1-0.6-1.6-0.8c-0.3-0.1-0.6-0.3-0.9-0.4
		c-0.7-0.4-1.5-0.7-2.3-0.7c-0.5,0-0.9,0.1-1.3,0.2C26,3.4,24.5,4.3,23,5.5c-2,1.5-4.1,2.8-6.3,4c-2.4,1-4.8,1.8-7.4,2.3
		c-2.9,0.6-5.6,1.2-7.4,3.8C0.7,17.2,0.2,20,0,21.4c0.5,0.1,1,0.2,1.5,0.3c-0.2,1-0.2,1.7-0.2,1.7c1.5,0.9,6.1,1.3,11.6,1.3
		c2.1,0,4.3-0.1,6.5-0.2c4.3-0.3,10.3-1.6,15-2.3c1.7-0.3,3.5-0.4,5.2-0.5h0.2l1.6,1.4c0.9,0.1,1.7,0.2,2.6,0.2
		c1.2,0,2.4-0.1,3.6-0.2c2-0.3,4.1-0.7,6-1.4c0,0-0.1-0.6-0.1-1.6C54.2,20.1,55,19.9,55.7,19.7"/>
</g>
</svg>
